<svg width="17" height="13" viewBox="0 0 17 13" fill="none" xmlns="http://www.w3.org/2000/svg">
<g clip-path="url(#clip0_205_1097)">
<path d="M14.3992 1.08744C13.2829 0.571769 12.1036 0.206136 10.892 0C10.7253 0.299914 10.5754 0.609015 10.4433 0.925834C9.15491 0.732997 7.84512 0.732997 6.55671 0.925834C6.41908 0.609491 6.26531 0.30047 6.096 0C4.88286 0.206028 3.70249 0.573382 2.58606 1.09237C0.373106 4.40345 -0.227886 7.6362 0.0717959 10.8196C1.37098 11.7884 2.82657 12.5256 4.37487 12.9989C4.72319 12.5251 5.03159 12.023 5.29686 11.4979C4.7938 11.3094 4.30828 11.0767 3.84593 10.8027C3.96711 10.7113 4.08393 10.62 4.19637 10.5287C5.54167 11.1672 7.01132 11.4984 8.49947 11.4984C9.98762 11.4984 11.4573 11.1672 12.8026 10.5287C12.9177 10.6241 13.0373 10.7166 13.1574 10.8059C12.6944 11.0817 12.2079 11.3156 11.7037 11.505C11.9685 12.0292 12.2769 12.5301 12.6257 13.0022C14.1746 12.5304 15.6304 11.793 16.9288 10.8229C17.2787 7.13165 16.3229 3.92849 14.3992 1.08744ZM5.67459 8.86663C4.83559 8.86663 4.14616 8.09528 4.14616 7.14863C4.14616 6.20198 4.81922 5.42406 5.67459 5.42406C6.52997 5.42406 7.21176 6.19541 7.20303 7.1437C7.19429 8.092 6.52942 8.86663 5.67459 8.86663ZM11.3222 8.86663C10.4832 8.86663 9.79372 8.09528 9.79372 7.14863C9.79372 6.20198 10.4668 5.42406 11.3222 5.42406C12.1775 5.42406 12.8593 6.19541 12.8506 7.1437C12.8419 8.092 12.177 8.86663 11.3222 8.86663Z" fill="#3E3E3E"/>
</g>
<defs>
<clipPath id="clip0_205_1097">
<rect width="17" height="13" fill="white"/>
</clipPath>
</defs>
</svg>
