<svg width="223" height="102" viewBox="0 0 223 102" fill="none" xmlns="http://www.w3.org/2000/svg">
<rect x="125" y="2" width="97" height="98" stroke="#44CB9B" stroke-width="2"/>
<rect width="102" height="102" rx="51" fill="#2C2C2C"/>
<line x1="102" y1="51" x2="124" y2="51" stroke="#44CB9B" stroke-width="2"/>
<path d="M40.68 45.62L40.876 47.86L40.386 48C40.33 47.5053 40.2087 47.1227 40.022 46.852C39.8353 46.5813 39.5553 46.39 39.182 46.278C38.818 46.166 38.3187 46.11 37.684 46.11L36.522 54.44L36.592 54.51H37.698L37.628 55H33.988L34.058 54.51H35.192L35.262 54.44L36.424 46.11C35.7987 46.11 35.2807 46.166 34.87 46.278C34.4687 46.39 34.1373 46.5813 33.876 46.852C33.624 47.1227 33.3953 47.5053 33.19 48L32.756 47.86L33.568 45.62H40.68ZM43.6625 48.42C44.1572 48.42 44.5912 48.5367 44.9645 48.77C45.3379 49.0033 45.6272 49.33 45.8325 49.75C46.0379 50.17 46.1405 50.66 46.1405 51.22C46.1405 51.7333 46.0519 52.228 45.8745 52.704C45.7065 53.1707 45.4685 53.586 45.1605 53.95C44.8525 54.314 44.4885 54.6033 44.0685 54.818C43.6485 55.0327 43.1912 55.14 42.6965 55.14C42.2019 55.14 41.7679 55.0233 41.3945 54.79C41.0212 54.5567 40.7319 54.23 40.5265 53.81C40.3212 53.3807 40.2185 52.8907 40.2185 52.34C40.2185 51.8267 40.3025 51.3367 40.4705 50.87C40.6479 50.394 40.8905 49.974 41.1985 49.61C41.5065 49.246 41.8705 48.9567 42.2905 48.742C42.7105 48.5273 43.1679 48.42 43.6625 48.42ZM42.8225 54.65C43.1492 54.65 43.4432 54.5567 43.7045 54.37C43.9659 54.1833 44.1899 53.9313 44.3765 53.614C44.5632 53.2873 44.7032 52.914 44.7965 52.494C44.8992 52.074 44.9505 51.6307 44.9505 51.164C44.9505 50.6507 44.8899 50.2307 44.7685 49.904C44.6472 49.568 44.4792 49.3207 44.2645 49.162C44.0499 48.994 43.8072 48.91 43.5365 48.91C43.2099 48.91 42.9159 49.0033 42.6545 49.19C42.3932 49.3767 42.1692 49.6333 41.9825 49.96C41.7959 50.2773 41.6512 50.646 41.5485 51.066C41.4552 51.486 41.4085 51.9293 41.4085 52.396C41.4085 52.9093 41.4692 53.334 41.5905 53.67C41.7119 53.9967 41.8799 54.244 42.0945 54.412C42.3092 54.5707 42.5519 54.65 42.8225 54.65ZM52.099 55.14C51.735 55.14 51.441 55.0373 51.217 54.832C50.993 54.6173 50.8156 54.3747 50.685 54.104L49.635 51.948L50.671 51.752L51.693 53.782C51.7956 53.9873 51.8983 54.16 52.001 54.3C52.113 54.44 52.2436 54.51 52.393 54.51C52.5516 54.51 52.7056 54.44 52.855 54.3C53.0136 54.16 53.1676 53.9267 53.317 53.6L53.751 53.838C53.555 54.286 53.3123 54.6173 53.023 54.832C52.743 55.0373 52.435 55.14 52.099 55.14ZM51.721 48.42C51.9823 48.42 52.2296 48.4527 52.463 48.518C52.6963 48.5833 52.8876 48.7047 53.037 48.882C53.1863 49.05 53.261 49.288 53.261 49.596C53.261 50.1093 53.0463 50.5527 52.617 50.926C52.1876 51.2993 51.609 51.5933 50.881 51.808C50.1623 52.0227 49.3596 52.158 48.473 52.214L48.501 51.766C49.257 51.7007 49.901 51.5793 50.433 51.402C50.9743 51.2153 51.3896 50.982 51.679 50.702C51.9683 50.4127 52.113 50.0813 52.113 49.708C52.113 49.4093 52.0336 49.2133 51.875 49.12C51.7256 49.0267 51.5576 48.98 51.371 48.98C51.091 48.98 50.783 49.0687 50.447 49.246C50.1203 49.4233 49.8216 49.6987 49.551 50.072C49.2896 50.4453 49.117 50.926 49.033 51.514L48.543 55H47.479L48.851 45.34L48.781 45.27H47.745L47.815 44.78C48.179 44.78 48.5243 44.7753 48.851 44.766C49.187 44.7567 49.5416 44.738 49.915 44.71L49.985 44.78L49.313 49.54C49.5463 49.26 49.859 49.0033 50.251 48.77C50.6523 48.5367 51.1423 48.42 51.721 48.42ZM57.094 55.14C56.5807 55.14 56.1373 55.0327 55.764 54.818C55.3907 54.594 55.1013 54.272 54.896 53.852C54.6907 53.432 54.588 52.928 54.588 52.34C54.588 51.584 54.7467 50.912 55.064 50.324C55.3907 49.7267 55.8293 49.26 56.38 48.924C56.94 48.588 57.5653 48.42 58.256 48.42C58.564 48.42 58.858 48.462 59.138 48.546C59.4273 48.6207 59.6607 48.7513 59.838 48.938C60.0153 49.1153 60.104 49.358 60.104 49.666C60.104 49.9927 59.9827 50.2913 59.74 50.562C59.4973 50.8327 59.1613 51.0707 58.732 51.276C58.312 51.4813 57.8313 51.6493 57.29 51.78C56.7487 51.9013 56.184 51.9853 55.596 52.032V51.584C56.0627 51.5373 56.4967 51.4627 56.898 51.36C57.3087 51.2573 57.668 51.1313 57.976 50.982C58.284 50.8233 58.522 50.6413 58.69 50.436C58.8673 50.2213 58.956 49.988 58.956 49.736C58.956 49.484 58.8813 49.2833 58.732 49.134C58.592 48.9847 58.382 48.91 58.102 48.91C57.7567 48.91 57.4393 48.9987 57.15 49.176C56.8607 49.3533 56.6087 49.6007 56.394 49.918C56.1793 50.2353 56.016 50.604 55.904 51.024C55.792 51.4347 55.736 51.8827 55.736 52.368C55.736 52.8907 55.8013 53.3153 55.932 53.642C56.072 53.9687 56.2587 54.2067 56.492 54.356C56.7347 54.5053 57.01 54.58 57.318 54.58C57.7193 54.58 58.0833 54.4493 58.41 54.188C58.746 53.9267 59.012 53.6327 59.208 53.306L59.642 53.544C59.502 53.796 59.3107 54.0433 59.068 54.286C58.8347 54.5287 58.5547 54.734 58.228 54.902C57.9013 55.0607 57.5233 55.14 57.094 55.14ZM67.6505 53.53L68.0845 53.768C67.8511 54.272 67.5991 54.6267 67.3285 54.832C67.0671 55.0373 66.7731 55.14 66.4465 55.14C66.0638 55.14 65.7651 55.0093 65.5505 54.748C65.3451 54.4773 65.2891 54.0433 65.3825 53.446L65.8305 50.534C65.8678 50.3287 65.8771 50.114 65.8585 49.89C65.8398 49.6567 65.7651 49.4607 65.6345 49.302C65.5131 49.134 65.2985 49.05 64.9905 49.05C64.8225 49.05 64.6311 49.0827 64.4165 49.148C64.2018 49.204 63.9871 49.3207 63.7725 49.498C63.5671 49.666 63.3805 49.918 63.2125 50.254C63.0538 50.5807 62.9371 51.0147 62.8625 51.556L62.3865 55H61.3225L62.1485 49.12L62.0785 49.05H61.0425L61.1125 48.56C61.4765 48.56 61.8125 48.5553 62.1205 48.546C62.4378 48.5367 62.7831 48.518 63.1565 48.49L63.2265 48.56L63.0725 49.554H63.1425C63.3198 49.2553 63.5811 48.994 63.9265 48.77C64.2718 48.5367 64.7011 48.42 65.2145 48.42C65.8398 48.42 66.3018 48.602 66.6005 48.966C66.9085 49.33 67.0158 49.806 66.9225 50.394L66.4185 53.642C66.3811 53.9313 66.3905 54.1507 66.4465 54.3C66.5025 54.44 66.5958 54.51 66.7265 54.51C66.8851 54.51 67.0391 54.4213 67.1885 54.244C67.3471 54.0573 67.5011 53.8193 67.6505 53.53Z" fill="white"/>
<path d="M157.932 56.14C157.559 56.14 157.237 56.07 156.966 55.93C156.695 55.79 156.49 55.6033 156.35 55.37C156.21 55.1273 156.14 54.8707 156.14 54.6C156.14 54.264 156.229 54.0073 156.406 53.83C156.593 53.6433 156.807 53.55 157.05 53.55C157.265 53.55 157.442 53.62 157.582 53.76C157.722 53.9 157.792 54.082 157.792 54.306C157.792 54.558 157.699 54.7493 157.512 54.88C157.325 55.0107 157.134 55.076 156.938 55.076C156.863 55.076 156.789 55.0667 156.714 55.048C156.639 55.02 156.569 54.9873 156.504 54.95C156.448 54.9127 156.401 54.8707 156.364 54.824H156.784C156.821 54.936 156.868 55.0387 156.924 55.132C156.98 55.216 157.045 55.2953 157.12 55.37C157.195 55.4353 157.283 55.4867 157.386 55.524C157.489 55.5613 157.605 55.58 157.736 55.58C158.025 55.58 158.301 55.4773 158.562 55.272C158.823 55.0573 158.987 54.6933 159.052 54.18L160.032 47.18H161.292L160.354 53.9C160.298 54.3387 160.186 54.7027 160.018 54.992C159.85 55.2813 159.649 55.51 159.416 55.678C159.183 55.846 158.935 55.9627 158.674 56.028C158.422 56.1027 158.175 56.14 157.932 56.14ZM158.926 46.62H162.566L162.496 47.11H161.362L161.292 47.18H160.032L159.962 47.11H158.856L158.926 46.62ZM162.445 56L162.515 55.51H163.649L163.719 55.44L164.881 47.18L164.811 47.11H163.691L163.761 46.62H167.723C168.134 46.62 168.535 46.6573 168.927 46.732C169.319 46.8067 169.679 46.9327 170.005 47.11C170.332 47.2873 170.589 47.5253 170.775 47.824C170.971 48.1227 171.069 48.496 171.069 48.944C171.069 49.4667 170.939 49.9193 170.677 50.302C170.425 50.6753 170.094 50.9833 169.683 51.226C169.282 51.4687 168.857 51.6507 168.409 51.772C167.961 51.884 167.541 51.94 167.149 51.94H165.469L164.979 55.44L165.049 55.51H166.715L166.645 56H162.445ZM165.539 51.45H166.939C167.406 51.45 167.854 51.394 168.283 51.282C168.713 51.1607 169.063 50.9367 169.333 50.61C169.604 50.2833 169.739 49.8167 169.739 49.21C169.739 48.6873 169.637 48.2767 169.431 47.978C169.235 47.67 168.969 47.4507 168.633 47.32C168.307 47.18 167.943 47.11 167.541 47.11H166.211L166.141 47.18L165.539 51.45ZM179.005 53.34H179.495L178.515 56H171.291L171.361 55.51H172.495L172.565 55.44L173.713 47.18L173.643 47.11H172.537L172.607 46.62H179.551L179.747 48.86L179.257 49C179.201 48.5053 179.084 48.1227 178.907 47.852C178.73 47.5813 178.473 47.39 178.137 47.278C177.801 47.166 177.362 47.11 176.821 47.11H175.043L174.973 47.18L174.455 50.89H175.897C176.298 50.89 176.616 50.7873 176.849 50.582C177.082 50.3767 177.26 49.966 177.381 49.35H177.871L177.367 52.92H176.877C176.924 52.304 176.858 51.8933 176.681 51.688C176.513 51.4827 176.228 51.38 175.827 51.38H174.385L173.825 55.44L173.895 55.51H175.925C176.737 55.51 177.376 55.3327 177.843 54.978C178.319 54.6233 178.706 54.0773 179.005 53.34ZM187.019 51.52H190.309L190.239 52.01H189.385L189.315 52.08L188.769 56H188.279L187.873 54.964H187.803C187.513 55.2253 187.224 55.4447 186.935 55.622C186.645 55.79 186.333 55.916 185.997 56C185.661 56.0933 185.287 56.14 184.877 56.14H184.863C184.097 56.14 183.425 55.9627 182.847 55.608C182.268 55.2533 181.815 54.768 181.489 54.152C181.171 53.5267 181.013 52.8173 181.013 52.024C181.013 51.2213 181.157 50.484 181.447 49.812C181.745 49.14 182.151 48.5567 182.665 48.062C183.187 47.558 183.78 47.1707 184.443 46.9C185.105 46.62 185.801 46.48 186.529 46.48C187.042 46.48 187.485 46.5453 187.859 46.676C188.241 46.8067 188.573 46.9747 188.853 47.18L189.231 46.62H189.721C189.683 47.096 189.669 47.558 189.679 48.006C189.697 48.4447 189.725 48.8833 189.763 49.322L189.273 49.462C189.151 48.818 188.937 48.3233 188.629 47.978C188.321 47.6233 187.966 47.3807 187.565 47.25C187.173 47.11 186.79 47.04 186.417 47.04C185.801 47.04 185.241 47.1707 184.737 47.432C184.242 47.684 183.813 48.0387 183.449 48.496C183.094 48.944 182.819 49.4713 182.623 50.078C182.436 50.6847 182.343 51.338 182.343 52.038C182.343 52.7193 182.45 53.3213 182.665 53.844C182.879 54.3667 183.192 54.7773 183.603 55.076C184.013 55.3653 184.513 55.51 185.101 55.51C185.577 55.51 186.02 55.412 186.431 55.216C186.851 55.02 187.196 54.7307 187.467 54.348C187.747 53.956 187.929 53.4707 188.013 52.892L188.125 52.08L188.055 52.01H186.949L187.019 51.52Z" fill="#2C2C2C"/>
</svg>
