<svg width="15" height="12" viewBox="0 0 15 12" fill="none" xmlns="http://www.w3.org/2000/svg">
<g clip-path="url(#clip0_205_1101)">
<path d="M14.9386 1.43765C14.4627 1.64729 13.9357 1.77129 13.422 1.85803C13.6657 1.81855 14.0238 1.38927 14.1657 1.21522C14.3897 0.952111 14.5605 0.650248 14.6692 0.325508C14.6823 0.299929 14.6915 0.269901 14.6658 0.24877C14.6528 0.243452 14.6387 0.24123 14.6247 0.242294C14.6106 0.243359 14.597 0.247677 14.5851 0.254886C14.0165 0.549362 13.4122 0.773531 12.7864 0.92217C12.7648 0.928791 12.7418 0.929328 12.7199 0.923718C12.698 0.918107 12.6782 0.906575 12.6628 0.89047C12.6145 0.834633 12.5619 0.782405 12.5055 0.734218C12.2457 0.516835 11.9514 0.34164 11.6342 0.215401C11.2106 0.0487119 10.7537 -0.0227568 10.2977 0.00632441C9.85485 0.0355337 9.42309 0.154078 9.02995 0.354418C8.63585 0.554564 8.28796 0.830835 8.0076 1.16629C7.71705 1.51409 7.50883 1.9198 7.39773 2.35461C7.29247 2.77277 7.30162 3.18871 7.3657 3.60965C7.37542 3.67972 7.36913 3.68973 7.30334 3.67972C4.83356 3.32272 2.78371 2.46359 1.12461 0.621334C1.05252 0.54126 1.01362 0.54126 0.952975 0.62745C0.22583 1.68732 0.578818 3.38945 1.48732 4.22633C1.60861 4.33755 1.73333 4.44877 1.8672 4.55108C1.818 4.56109 1.21328 4.49547 0.67436 4.22633C0.602275 4.18185 0.566233 4.20743 0.559939 4.28695C0.555262 4.40203 0.561775 4.51727 0.579391 4.63116C0.718984 5.70548 1.48446 6.69863 2.53256 7.08676C2.65973 7.1403 2.79273 7.17966 2.92902 7.20409C2.68988 7.25525 2.44388 7.2914 1.75907 7.23968C1.67383 7.22356 1.64122 7.26471 1.67383 7.34478C2.18872 8.70771 3.29918 9.11364 4.13388 9.34663C4.24486 9.36554 4.35642 9.36553 4.46799 9.39056C4.46169 9.40057 4.45483 9.40057 4.44853 9.41003C4.17221 9.81874 3.21565 10.1235 2.76998 10.2747C1.95382 10.5576 1.0844 10.6657 0.221253 10.5917C0.0845196 10.5722 0.055343 10.5733 0.0181562 10.5917C-0.0190306 10.61 0.0135795 10.6473 0.0576315 10.6806C0.229263 10.7919 0.408332 10.8908 0.588545 10.9865C1.1299 11.267 1.70121 11.4891 2.29227 11.6488C5.35418 12.4706 8.8034 11.8667 11.1027 9.64691C12.9082 7.90308 13.541 5.49863 13.541 3.0914C13.541 2.99687 13.6554 2.9446 13.7235 2.89511C14.1932 2.55201 14.5725 2.14163 14.9249 1.68343C14.9779 1.61704 15.006 1.53502 15.0044 1.45099V1.43821C15.0004 1.39928 14.9999 1.41096 14.9386 1.43765Z" fill="#3E3E3E"/>
</g>
<defs>
<clipPath id="clip0_205_1101">
<rect width="15" height="12" fill="white"/>
</clipPath>
</defs>
</svg>
