<svg width="476" height="234" fill="none" xmlns="http://www.w3.org/2000/svg"><path d="m305.68 171.62.196 2.24-.49.14c-.056-.495-.177-.877-.364-1.148-.187-.271-.467-.462-.84-.574-.364-.112-.863-.168-1.498-.168l-1.162 8.33.07.07h1.106l-.07.49h-3.64l.07-.49h1.134l.07-.07 1.162-8.33c-.625 0-1.143.056-1.554.168a2.152 2.152 0 0 0-.994.574c-.252.271-.481.653-.686 1.148l-.434-.14.812-2.24h7.112Zm7.201 7.91.434.238c-.233.504-.485.859-.756 1.064a1.392 1.392 0 0 1-.882.308c-.383 0-.681-.131-.896-.392-.205-.271-.261-.705-.168-1.302l.448-2.912a2.45 2.45 0 0 0 .028-.644 1.03 1.03 0 0 0-.224-.588c-.121-.168-.336-.252-.644-.252-.168 0-.359.033-.574.098a1.707 1.707 0 0 0-.644.392c-.205.187-.392.457-.56.812-.168.355-.294.821-.378 1.4l-.462 3.248h-1.064l1.372-9.66-.07-.07h-1.036l.07-.49c.364 0 .709-.005 1.036-.014.336-.009.691-.028 1.064-.056l.07.07-.672 4.746c.187-.299.448-.555.784-.77.345-.224.775-.336 1.288-.336.625 0 1.087.182 1.386.546.308.364.415.84.322 1.428l-.504 3.248c-.037.289-.028.509.028.658.056.14.149.21.28.21.159 0 .313-.089.462-.266.159-.187.313-.425.462-.714Zm3.895 1.61c-.514 0-.957-.107-1.33-.322a2.237 2.237 0 0 1-.868-.966c-.206-.42-.308-.924-.308-1.512 0-.756.158-1.428.476-2.016a3.654 3.654 0 0 1 1.316-1.4 3.575 3.575 0 0 1 1.876-.504c.308 0 .602.042.882.126.289.075.522.205.7.392.177.177.266.42.266.728 0 .327-.122.625-.364.896-.243.271-.579.509-1.008.714-.42.205-.901.373-1.442.504a12.24 12.24 0 0 1-1.694.252v-.448c.466-.047.9-.121 1.302-.224.41-.103.77-.229 1.078-.378.308-.159.546-.341.714-.546a1.08 1.08 0 0 0 .266-.7c0-.252-.075-.453-.224-.602-.14-.149-.35-.224-.63-.224-.346 0-.663.089-.952.266-.29.177-.542.425-.756.742a3.611 3.611 0 0 0-.49 1.106 5.1 5.1 0 0 0-.168 1.344c0 .523.065.947.196 1.274.14.327.326.565.56.714.242.149.518.224.826.224.401 0 .765-.131 1.092-.392a3.21 3.21 0 0 0 .798-.882l.434.238c-.14.252-.332.499-.574.742a3.168 3.168 0 0 1-.84.616 2.563 2.563 0 0 1-1.134.238Zm9.247-7.35c0 .345.112.63.336.854.233.215.527.401.882.56.364.149.746.303 1.148.462.401.149.779.331 1.134.546.364.215.658.49.882.826.233.336.35.77.35 1.302 0 .588-.145 1.092-.434 1.512a2.8 2.8 0 0 1-1.176.966c-.486.215-1.036.322-1.652.322-.486 0-.952-.065-1.4-.196a3.883 3.883 0 0 1-1.12-.518l-.378.56h-.49a8.73 8.73 0 0 0 .028-.994c0-.355-.01-.7-.028-1.036a23.176 23.176 0 0 0-.07-.952l.476-.14c.196.691.462 1.237.798 1.638.336.392.695.672 1.078.84.382.159.732.238 1.05.238.401 0 .774-.065 1.12-.196.345-.14.62-.345.826-.616.214-.271.322-.616.322-1.036 0-.383-.117-.695-.35-.938a2.789 2.789 0 0 0-.868-.616 13.576 13.576 0 0 0-1.148-.504 9.804 9.804 0 0 1-1.134-.56 3.11 3.11 0 0 1-.882-.784c-.224-.317-.336-.719-.336-1.204 0-.551.14-1.022.42-1.414a2.684 2.684 0 0 1 1.162-.91c.494-.215 1.05-.322 1.666-.322.41 0 .779.061 1.106.182.336.112.658.289.966.532l.378-.574h.49c-.028.476-.038.938-.028 1.386.009.448.032.891.07 1.33l-.49.14c-.103-.513-.252-.929-.448-1.246-.196-.327-.416-.574-.658-.742a2.21 2.21 0 0 0-.714-.35 2.664 2.664 0 0 0-.686-.098c-.691 0-1.232.177-1.624.532-.383.345-.574.751-.574 1.218Zm9.792.63c.495 0 .929.117 1.302.35.373.233.663.56.868.98.205.42.308.91.308 1.47 0 .513-.089 1.008-.266 1.484a4.013 4.013 0 0 1-.714 1.246 3.516 3.516 0 0 1-1.092.868c-.42.215-.877.322-1.372.322-.495 0-.929-.117-1.302-.35a2.334 2.334 0 0 1-.868-.98c-.205-.429-.308-.919-.308-1.47 0-.513.084-1.003.252-1.47.177-.476.42-.896.728-1.26a3.516 3.516 0 0 1 1.092-.868c.42-.215.877-.322 1.372-.322Zm-.84 6.23c.327 0 .621-.093.882-.28a2.43 2.43 0 0 0 .672-.756c.187-.327.327-.7.42-1.12.103-.42.154-.863.154-1.33 0-.513-.061-.933-.182-1.26-.121-.336-.289-.583-.504-.742a1.15 1.15 0 0 0-.728-.252c-.327 0-.621.093-.882.28a2.38 2.38 0 0 0-.672.77 4.078 4.078 0 0 0-.434 1.106c-.093.42-.14.863-.14 1.33 0 .513.061.938.182 1.274.121.327.289.574.504.742.215.159.457.238.728.238Zm11.124-1.12.434.238c-.233.504-.485.859-.756 1.064a1.392 1.392 0 0 1-.882.308c-.317 0-.578-.093-.784-.28-.196-.187-.298-.485-.308-.896a2.624 2.624 0 0 1-.784.826c-.336.233-.751.35-1.246.35-.588 0-1.026-.182-1.316-.546-.28-.364-.378-.845-.294-1.442l.546-4.032-.07-.07h-1.036l.07-.49c.364 0 .71-.005 1.036-.014.336-.009.691-.028 1.064-.056l.07.07-.63 4.62c-.028.215-.023.425.014.63.047.205.14.373.28.504s.332.196.574.196c.486 0 .906-.243 1.26-.728.364-.495.607-1.157.728-1.988l.392-2.674-.07-.07h-1.036l.07-.49c.364 0 .71-.005 1.036-.014.336-.009.691-.028 1.064-.056l.07.07-.728 5.082c-.037.289-.028.509.028.658.056.14.15.21.28.21.159 0 .313-.089.462-.266.159-.187.313-.425.462-.714Zm4.194 0 .434.238c-.234.504-.486.859-.756 1.064a1.396 1.396 0 0 1-.882.308c-.383 0-.677-.131-.882-.392-.206-.271-.266-.705-.182-1.302l1.148-8.106-.07-.07h-1.036l.07-.49c.364 0 .709-.005 1.036-.014.336-.009.69-.028 1.064-.056l.07.07-1.246 8.862c-.038.289-.028.509.028.658.056.14.149.21.28.21.158 0 .312-.089.462-.266.158-.187.312-.425.462-.714Zm11.659 0 .434.238c-.233.504-.485.859-.756 1.064a1.392 1.392 0 0 1-.882.308c-.383 0-.681-.131-.896-.392-.205-.271-.261-.705-.168-1.302l.448-2.912a2.45 2.45 0 0 0 .028-.644 1.095 1.095 0 0 0-.21-.588c-.112-.168-.308-.252-.588-.252-.149 0-.327.028-.532.084a1.804 1.804 0 0 0-.602.322c-.205.159-.387.392-.546.7-.159.308-.275.709-.35 1.204l-.518 3.64h-1.05l.616-4.466c.028-.205.033-.42.014-.644a1.01 1.01 0 0 0-.196-.588c-.112-.168-.308-.252-.588-.252-.149 0-.327.033-.532.098a1.604 1.604 0 0 0-.616.35c-.205.168-.392.42-.56.756-.159.327-.275.761-.35 1.302l-.476 3.444h-1.064l.826-5.88-.07-.07h-1.036l.07-.49c.364 0 .7-.005 1.008-.014.317-.009.663-.028 1.036-.056l.07.07-.154.994h.07c.177-.299.434-.56.77-.784.336-.233.747-.35 1.232-.35.467 0 .84.117 1.12.35.28.224.453.527.518.91.177-.355.457-.653.84-.896a2.374 2.374 0 0 1 1.274-.364c.588 0 1.031.182 1.33.546.299.364.401.84.308 1.428l-.504 3.248c-.047.289-.042.509.014.658.065.14.163.21.294.21.159 0 .313-.089.462-.266.159-.187.313-.425.462-.714Zm1.386-1.19c0-.579.084-1.106.252-1.582a3.94 3.94 0 0 1 .686-1.232 3.182 3.182 0 0 1 1.008-.812 2.469 2.469 0 0 1 1.162-.294c.252 0 .499.047.742.14.252.084.476.229.672.434.205.196.359.467.462.812l.658-1.246h.49l-.7 5.082c-.037.289-.028.509.028.658.056.14.149.21.28.21.159 0 .313-.089.462-.266.159-.187.313-.425.462-.714l.434.238c-.233.504-.485.859-.756 1.064a1.392 1.392 0 0 1-.882.308c-.317 0-.579-.093-.784-.28-.196-.196-.299-.495-.308-.896a2.488 2.488 0 0 1-.896.868 2.41 2.41 0 0 1-1.204.308c-.448 0-.845-.107-1.19-.322a2.302 2.302 0 0 1-.798-.952c-.187-.42-.28-.929-.28-1.526Zm1.19.07c0 .7.117 1.227.35 1.582.233.345.565.518.994.518.448 0 .835-.159 1.162-.476.327-.327.579-.742.756-1.246.187-.513.28-1.055.28-1.624 0-.719-.14-1.251-.42-1.596-.28-.345-.635-.518-1.064-.518-.448 0-.826.163-1.134.49-.299.317-.527.733-.686 1.246a5.368 5.368 0 0 0-.238 1.624Zm8.473 2.73c-.43 0-.742-.14-.938-.42-.196-.28-.262-.653-.196-1.12l.63-4.48-.07-.07h-1.05l.07-.49c.56-.037 1.003-.289 1.33-.756.336-.476.597-1.204.784-2.184h.49l-.42 2.94h1.694l-.07.49h-1.624l-.07.07-.644 4.55c-.047.345-.033.574.042.686a.371.371 0 0 0 .294.154c.214 0 .42-.107.616-.322.205-.224.401-.537.588-.938l.434.238c-.224.513-.481.919-.77 1.218-.28.289-.654.434-1.12.434Zm5.585 0c-.513 0-.956-.107-1.33-.322a2.25 2.25 0 0 1-.868-.966c-.205-.42-.308-.924-.308-1.512 0-.756.159-1.428.476-2.016a3.67 3.67 0 0 1 1.316-1.4 3.578 3.578 0 0 1 1.876-.504c.308 0 .602.042.882.126.29.075.523.205.7.392.178.177.266.42.266.728 0 .327-.121.625-.364.896-.242.271-.578.509-1.008.714-.42.205-.9.373-1.442.504-.541.121-1.106.205-1.694.252v-.448a8.768 8.768 0 0 0 1.302-.224c.411-.103.77-.229 1.078-.378.308-.159.546-.341.714-.546.178-.215.266-.448.266-.7 0-.252-.074-.453-.224-.602-.14-.149-.35-.224-.63-.224-.345 0-.662.089-.952.266a2.49 2.49 0 0 0-.756.742 3.635 3.635 0 0 0-.49 1.106 5.1 5.1 0 0 0-.168 1.344c0 .523.066.947.196 1.274.14.327.327.565.56.714.243.149.518.224.826.224.402 0 .766-.131 1.092-.392a3.21 3.21 0 0 0 .798-.882l.434.238c-.14.252-.331.499-.574.742a3.136 3.136 0 0 1-.84.616 2.557 2.557 0 0 1-1.134.238Zm6.049 0c-.448 0-.85-.065-1.204-.196a2.177 2.177 0 0 1-.854-.574 1.223 1.223 0 0 1-.308-.812c0-.252.07-.467.21-.644a.651.651 0 0 1 .546-.28c.177 0 .312.056.406.168a.62.62 0 0 1 .154.434.932.932 0 0 1-.224.588.664.664 0 0 1-.546.266c-.178 0-.294-.056-.35-.168a.802.802 0 0 1-.084-.364h.378c0 .289.177.546.532.77.364.215.802.322 1.316.322.382 0 .686-.056.91-.168.233-.121.396-.266.49-.434.102-.177.154-.35.154-.518a.818.818 0 0 0-.238-.602 2.07 2.07 0 0 0-.616-.434 10.068 10.068 0 0 0-.784-.378 9.36 9.36 0 0 1-.798-.42 2.201 2.201 0 0 1-.602-.574c-.159-.224-.238-.499-.238-.826 0-.327.088-.63.266-.91.186-.289.457-.523.812-.7.354-.177.788-.266 1.302-.266.662 0 1.18.145 1.554.434.382.28.574.625.574 1.036 0 .252-.07.471-.21.658a.664.664 0 0 1-.546.266.54.54 0 0 1-.42-.168.652.652 0 0 1-.14-.434c0-.215.07-.411.21-.588a.677.677 0 0 1 .56-.266c.186 0 .303.056.35.168a.802.802 0 0 1 .084.364h-.378c0-.252-.136-.476-.406-.672-.271-.205-.668-.308-1.19-.308-.402 0-.714.056-.938.168-.215.112-.364.247-.448.406a.861.861 0 0 0-.126.42c0 .205.079.378.238.518.158.14.359.271.602.392.252.112.518.233.798.364.28.131.541.28.784.448.252.168.457.378.616.63.158.243.238.546.238.91 0 .401-.103.751-.308 1.05-.206.289-.49.518-.854.686-.364.159-.789.238-1.274.238Zm9.728 0c-.373 0-.714-.061-1.022-.182a2.392 2.392 0 0 1-.798-.546 2.624 2.624 0 0 1-.504-.882 3.756 3.756 0 0 1-.168-1.162c0-.541.089-1.05.266-1.526.177-.476.425-.896.742-1.26a3.482 3.482 0 0 1 1.106-.854c.42-.205.873-.308 1.358-.308.383 0 .719.065 1.008.196.299.121.527.294.686.518.168.215.252.462.252.742 0 .261-.07.485-.21.672a.664.664 0 0 1-.546.266.542.542 0 0 1-.42-.168.658.658 0 0 1-.14-.434c0-.215.07-.411.21-.588a.679.679 0 0 1 .56-.266c.187 0 .303.056.35.168a.802.802 0 0 1 .084.364l-.42.098a.946.946 0 0 0-.168-.56.945.945 0 0 0-.448-.378 1.527 1.527 0 0 0-.686-.14c-.392 0-.737.093-1.036.28a2.445 2.445 0 0 0-.742.77 3.6 3.6 0 0 0-.462 1.106c-.103.411-.154.84-.154 1.288 0 .793.145 1.363.434 1.708.299.345.663.518 1.092.518.429 0 .789-.131 1.078-.392.299-.271.551-.565.756-.882l.434.238c-.159.271-.35.527-.574.77a2.615 2.615 0 0 1-.798.602c-.308.149-.681.224-1.12.224Zm7.268-6.72c.495 0 .929.117 1.302.35.374.233.663.56.868.98.206.42.308.91.308 1.47 0 .513-.088 1.008-.266 1.484a4.013 4.013 0 0 1-.714 1.246 3.516 3.516 0 0 1-1.092.868c-.42.215-.877.322-1.372.322-.494 0-.928-.117-1.302-.35a2.34 2.34 0 0 1-.868-.98c-.205-.429-.308-.919-.308-1.47 0-.513.084-1.003.252-1.47.178-.476.42-.896.728-1.26a3.516 3.516 0 0 1 1.092-.868c.42-.215.878-.322 1.372-.322Zm-.84 6.23c.327 0 .621-.093.882-.28.262-.187.486-.439.672-.756.187-.327.327-.7.42-1.12.103-.42.154-.863.154-1.33 0-.513-.06-.933-.182-1.26-.121-.336-.289-.583-.504-.742a1.148 1.148 0 0 0-.728-.252c-.326 0-.62.093-.882.28a2.38 2.38 0 0 0-.672.77 4.11 4.11 0 0 0-.434 1.106c-.093.42-.14.863-.14 1.33 0 .513.061.938.182 1.274.122.327.29.574.504.742.215.159.458.238.728.238Zm14.919-1.12.434.238c-.234.504-.486.859-.756 1.064a1.396 1.396 0 0 1-.882.308c-.383 0-.682-.131-.896-.392-.206-.271-.262-.705-.168-1.302l.448-2.912c.037-.205.046-.42.028-.644a1.095 1.095 0 0 0-.21-.588c-.112-.168-.308-.252-.588-.252-.15 0-.327.028-.532.084a1.804 1.804 0 0 0-.602.322c-.206.159-.388.392-.546.7-.159.308-.276.709-.35 1.204l-.518 3.64h-1.05l.616-4.466c.028-.205.032-.42.014-.644a1.017 1.017 0 0 0-.196-.588c-.112-.168-.308-.252-.588-.252-.15 0-.327.033-.532.098a1.597 1.597 0 0 0-.616.35c-.206.168-.392.42-.56.756-.159.327-.276.761-.35 1.302l-.476 3.444h-1.064l.826-5.88-.07-.07h-1.036l.07-.49c.364 0 .7-.005 1.008-.014.317-.009.662-.028 1.036-.056l.07.07-.154.994h.07c.177-.299.434-.56.77-.784.336-.233.746-.35 1.232-.35.466 0 .84.117 1.12.35.28.224.452.527.518.91.177-.355.457-.653.84-.896a2.371 2.371 0 0 1 1.274-.364c.588 0 1.031.182 1.33.546.298.364.401.84.308 1.428l-.504 3.248c-.047.289-.042.509.014.658.065.14.163.21.294.21.158 0 .312-.089.462-.266.158-.187.312-.425.462-.714Zm11.662 0 .434.238c-.234.504-.486.859-.756 1.064a1.396 1.396 0 0 1-.882.308c-.383 0-.682-.131-.896-.392-.206-.271-.262-.705-.168-1.302l.448-2.912c.037-.205.046-.42.028-.644a1.095 1.095 0 0 0-.21-.588c-.112-.168-.308-.252-.588-.252-.15 0-.327.028-.532.084a1.804 1.804 0 0 0-.602.322c-.206.159-.388.392-.546.7-.159.308-.276.709-.35 1.204l-.518 3.64h-1.05l.616-4.466c.028-.205.032-.42.014-.644a1.017 1.017 0 0 0-.196-.588c-.112-.168-.308-.252-.588-.252-.15 0-.327.033-.532.098a1.597 1.597 0 0 0-.616.35c-.206.168-.392.42-.56.756-.159.327-.276.761-.35 1.302l-.476 3.444h-1.064l.826-5.88-.07-.07h-1.036l.07-.49c.364 0 .7-.005 1.008-.014.317-.009.662-.028 1.036-.056l.07.07-.154.994h.07c.177-.299.434-.56.77-.784.336-.233.746-.35 1.232-.35.466 0 .84.117 1.12.35.28.224.452.527.518.91.177-.355.457-.653.84-.896a2.371 2.371 0 0 1 1.274-.364c.588 0 1.031.182 1.33.546.298.364.401.84.308 1.428l-.504 3.248c-.047.289-.042.509.014.658.065.14.163.21.294.21.158 0 .312-.089.462-.266.158-.187.312-.425.462-.714Zm7.868 0 .434.238c-.233.504-.485.859-.756 1.064a1.392 1.392 0 0 1-.882.308c-.317 0-.579-.093-.784-.28-.196-.187-.299-.485-.308-.896a2.635 2.635 0 0 1-.784.826c-.336.233-.751.35-1.246.35-.588 0-1.027-.182-1.316-.546-.28-.364-.378-.845-.294-1.442l.546-4.032-.07-.07h-1.036l.07-.49c.364 0 .709-.005 1.036-.014.336-.009.691-.028 1.064-.056l.07.07-.63 4.62c-.028.215-.023.425.014.63.047.205.14.373.28.504s.331.196.574.196c.485 0 .905-.243 1.26-.728.364-.495.607-1.157.728-1.988l.392-2.674-.07-.07h-1.036l.07-.49c.364 0 .709-.005 1.036-.014.336-.009.691-.028 1.064-.056l.07.07-.728 5.082c-.037.289-.028.509.028.658.056.14.149.21.28.21.159 0 .313-.089.462-.266.159-.187.313-.425.462-.714Zm8.043 0 .434.238c-.233.504-.485.859-.756 1.064a1.392 1.392 0 0 1-.882.308c-.382 0-.681-.131-.896-.392-.205-.271-.261-.705-.168-1.302l.448-2.912c.038-.205.047-.42.028-.644a1.024 1.024 0 0 0-.224-.588c-.121-.168-.336-.252-.644-.252-.168 0-.359.033-.574.098a1.706 1.706 0 0 0-.644.35c-.205.168-.392.42-.56.756-.158.327-.275.761-.35 1.302l-.476 3.444h-1.064l.826-5.88-.07-.07h-1.036l.07-.49c.364 0 .7-.005 1.008-.014.318-.009.663-.028 1.036-.056l.07.07-.154.994h.07c.178-.299.439-.56.784-.784.346-.233.775-.35 1.288-.35.626 0 1.088.182 1.386.546.308.364.416.84.322 1.428l-.504 3.248c-.037.289-.028.509.028.658.056.14.15.21.28.21.159 0 .313-.089.462-.266.159-.187.313-.425.462-.714Zm4.189 0 .434.238c-.233.504-.485.859-.756 1.064a1.392 1.392 0 0 1-.882.308c-.383 0-.677-.131-.882-.392-.205-.271-.266-.705-.182-1.302l.63-4.326-.07-.07h-1.036l.07-.49c.364 0 .709-.005 1.036-.014.336-.009.691-.028 1.064-.056l.07.07-.728 5.082c-.037.289-.028.509.028.658.056.14.149.21.28.21.159 0 .313-.089.462-.266.159-.187.313-.425.462-.714Zm-.924-6.51a.565.565 0 0 1-.434-.182.617.617 0 0 1-.168-.434c0-.243.079-.457.238-.644a.77.77 0 0 1 .616-.28c.187 0 .331.061.434.182a.617.617 0 0 1 .168.434 1 1 0 0 1-.238.644.77.77 0 0 1-.616.28Zm3.918 8.12c-.43 0-.742-.14-.938-.42-.196-.28-.262-.653-.196-1.12l.63-4.48-.07-.07h-1.05l.07-.49c.56-.037 1.003-.289 1.33-.756.336-.476.597-1.204.784-2.184h.49l-.42 2.94h1.694l-.07.49h-1.624l-.07.07-.644 4.55c-.047.345-.033.574.042.686a.371.371 0 0 0 .294.154c.214 0 .42-.107.616-.322.205-.224.401-.537.588-.938l.434.238c-.224.513-.481.919-.77 1.218-.28.289-.654.434-1.12.434Zm4.997 3.5c-.392 0-.742-.07-1.05-.21a1.764 1.764 0 0 1-.714-.546 1.266 1.266 0 0 1-.266-.784c0-.261.07-.485.21-.672a.664.664 0 0 1 .546-.266c.177 0 .313.056.406.168a.616.616 0 0 1 .154.434.896.896 0 0 1-.182.532.69.69 0 0 1-.462.308c.112.149.275.275.49.378.215.112.471.168.77.168.42 0 .77-.107 1.05-.322.289-.205.523-.546.7-1.022.187-.476.336-1.111.448-1.904l.126-.868c-.187.299-.448.56-.784.784-.327.215-.728.322-1.204.322-.588 0-1.027-.182-1.316-.546-.28-.364-.378-.845-.294-1.442l.546-4.032-.07-.07h-1.036l.07-.49c.364 0 .709-.005 1.036-.014.336-.009.691-.028 1.064-.056l.07.07-.63 4.62c-.028.215-.023.425.014.63.047.205.14.373.28.504s.331.196.574.196c.327 0 .625-.107.896-.322.271-.224.499-.541.686-.952.196-.411.331-.896.406-1.456l.378-2.66-.07-.07h-1.036l.07-.49c.364 0 .709-.005 1.036-.014.336-.009.691-.028 1.064-.056l.07.07-.896 6.44a6.138 6.138 0 0 1-.35 1.414 4.22 4.22 0 0 1-.63 1.162 2.795 2.795 0 0 1-.938.784c-.355.187-.765.28-1.232.28ZM299.786 208.44l1.036-7.434c-.205.205-.481.42-.826.644-.345.215-.672.401-.98.56l-.182-.462c.121-.056.299-.154.532-.294.243-.149.499-.322.77-.518.28-.205.541-.42.784-.644.252-.224.448-.448.588-.672h.77l-1.232 8.82h-1.26Zm-1.974.56.07-.49h1.834l.07-.07h1.26l.07.07h1.806l-.07.49h-5.04Zm13.72-8.26h-4.844l-.644 2.954c.205-.159.49-.308.854-.448.373-.14.817-.21 1.33-.21.915 0 1.624.243 2.128.728.513.485.77 1.115.77 1.89a3.2 3.2 0 0 1-.518 1.778 3.67 3.67 0 0 1-1.414 1.246c-.597.308-1.279.462-2.044.462-.607 0-1.111-.093-1.512-.28-.401-.196-.7-.448-.896-.756a1.773 1.773 0 0 1-.294-.966c0-.355.093-.635.28-.84.187-.205.397-.308.63-.308.205 0 .369.065.49.196a.676.676 0 0 1 .182.476.802.802 0 0 1-.266.602.914.914 0 0 1-.546.266c.131.317.359.574.686.77.336.187.751.28 1.246.28.588 0 1.078-.126 1.47-.378a2.35 2.35 0 0 0 .882-1.022c.196-.429.294-.901.294-1.414 0-.439-.07-.817-.21-1.134a1.65 1.65 0 0 0-.616-.756c-.271-.187-.611-.28-1.022-.28-.429 0-.859.103-1.288.308a2.832 2.832 0 0 0-1.05.84l-.406-.112 1.12-5.012h5.362l-.154 1.12Zm5.45-1.26c.541 0 1.022.159 1.442.476.429.317.765.775 1.008 1.372.252.588.378 1.288.378 2.1 0 .859-.117 1.638-.35 2.338a5.827 5.827 0 0 1-.952 1.806 4.26 4.26 0 0 1-1.344 1.162 3.165 3.165 0 0 1-1.54.406 2.39 2.39 0 0 1-1.456-.476c-.42-.327-.756-.784-1.008-1.372-.243-.588-.364-1.288-.364-2.1 0-.859.117-1.638.35-2.338.233-.7.551-1.302.952-1.806a4.465 4.465 0 0 1 1.344-1.162 3.165 3.165 0 0 1 1.54-.406Zm-1.162 9.1c.383 0 .719-.103 1.008-.308a2.58 2.58 0 0 0 .756-.826c.215-.355.387-.761.518-1.218.131-.457.229-.943.294-1.456.065-.523.098-1.041.098-1.554 0-1.027-.149-1.811-.448-2.352-.299-.551-.719-.826-1.26-.826-.383 0-.723.103-1.022.308a2.765 2.765 0 0 0-.756.84 5.104 5.104 0 0 0-.504 1.204 9.715 9.715 0 0 0-.294 1.456 12.35 12.35 0 0 0-.098 1.554c0 1.027.149 1.815.448 2.366.299.541.719.812 1.26.812Zm10.744.56c-.373 0-.714-.061-1.022-.182a2.392 2.392 0 0 1-.798-.546 2.624 2.624 0 0 1-.504-.882 3.756 3.756 0 0 1-.168-1.162c0-.541.089-1.05.266-1.526.177-.476.425-.896.742-1.26a3.482 3.482 0 0 1 1.106-.854c.42-.205.873-.308 1.358-.308.383 0 .719.065 1.008.196.299.121.527.294.686.518.168.215.252.462.252.742 0 .261-.07.485-.21.672a.664.664 0 0 1-.546.266.542.542 0 0 1-.42-.168.658.658 0 0 1-.14-.434c0-.215.07-.411.21-.588a.679.679 0 0 1 .56-.266c.187 0 .303.056.35.168a.802.802 0 0 1 .084.364l-.42.098a.946.946 0 0 0-.168-.56.945.945 0 0 0-.448-.378 1.527 1.527 0 0 0-.686-.14c-.392 0-.737.093-1.036.28a2.445 2.445 0 0 0-.742.77 3.6 3.6 0 0 0-.462 1.106c-.103.411-.154.84-.154 1.288 0 .793.145 1.363.434 1.708.299.345.663.518 1.092.518.429 0 .789-.131 1.078-.392.299-.271.551-.565.756-.882l.434.238c-.159.271-.35.527-.574.77a2.615 2.615 0 0 1-.798.602c-.308.149-.681.224-1.12.224Zm4.174-.14.826-5.88-.07-.07h-1.036l.07-.49c.364 0 .7-.005 1.008-.014.318-.009.663-.028 1.036-.056l.07.07-.21 1.456h.07c.131-.252.304-.499.518-.742.215-.252.462-.457.742-.616.29-.159.593-.238.91-.238.271 0 .481.079.63.238.159.159.238.35.238.574 0 .252-.074.476-.224.672a.73.73 0 0 1-.616.294.665.665 0 0 1-.49-.182c-.112-.121-.168-.285-.168-.49a.95.95 0 0 1 .112-.42c-.429.177-.835.555-1.218 1.134-.373.569-.625 1.269-.756 2.1l-.378 2.66h-1.064Zm7.42.14c-.513 0-.956-.107-1.33-.322a2.25 2.25 0 0 1-.868-.966c-.205-.42-.308-.924-.308-1.512 0-.756.159-1.428.476-2.016a3.67 3.67 0 0 1 1.316-1.4 3.578 3.578 0 0 1 1.876-.504c.308 0 .602.042.882.126.29.075.523.205.7.392.178.177.266.42.266.728 0 .327-.121.625-.364.896-.242.271-.578.509-1.008.714-.42.205-.9.373-1.442.504-.541.121-1.106.205-1.694.252v-.448a8.768 8.768 0 0 0 1.302-.224c.411-.103.77-.229 1.078-.378.308-.159.546-.341.714-.546.178-.215.266-.448.266-.7 0-.252-.074-.453-.224-.602-.14-.149-.35-.224-.63-.224-.345 0-.662.089-.952.266a2.49 2.49 0 0 0-.756.742 3.635 3.635 0 0 0-.49 1.106 5.1 5.1 0 0 0-.168 1.344c0 .523.066.947.196 1.274.14.327.327.565.56.714.243.149.518.224.826.224.402 0 .766-.131 1.092-.392a3.21 3.21 0 0 0 .798-.882l.434.238c-.14.252-.331.499-.574.742a3.136 3.136 0 0 1-.84.616 2.557 2.557 0 0 1-1.134.238Zm3.893-2.8c0-.579.084-1.106.252-1.582a3.94 3.94 0 0 1 .686-1.232 3.182 3.182 0 0 1 1.008-.812 2.469 2.469 0 0 1 1.162-.294c.252 0 .499.047.742.14.252.084.476.229.672.434.205.196.359.467.462.812l.658-1.246h.49l-.7 5.082c-.037.289-.028.509.028.658.056.14.149.21.28.21.159 0 .313-.089.462-.266.159-.187.313-.425.462-.714l.434.238c-.233.504-.485.859-.756 1.064a1.392 1.392 0 0 1-.882.308c-.317 0-.579-.093-.784-.28-.196-.196-.299-.495-.308-.896a2.488 2.488 0 0 1-.896.868 2.41 2.41 0 0 1-1.204.308c-.448 0-.845-.107-1.19-.322a2.302 2.302 0 0 1-.798-.952c-.187-.42-.28-.929-.28-1.526Zm1.19.07c0 .7.117 1.227.35 1.582.233.345.565.518.994.518.448 0 .835-.159 1.162-.476.327-.327.579-.742.756-1.246.187-.513.28-1.055.28-1.624 0-.719-.14-1.251-.42-1.596-.28-.345-.635-.518-1.064-.518-.448 0-.826.163-1.134.49-.299.317-.527.733-.686 1.246a5.368 5.368 0 0 0-.238 1.624Zm8.473 2.73c-.43 0-.742-.14-.938-.42-.196-.28-.262-.653-.196-1.12l.63-4.48-.07-.07h-1.05l.07-.49c.56-.037 1.003-.289 1.33-.756.336-.476.597-1.204.784-2.184h.49l-.42 2.94h1.694l-.07.49h-1.624l-.07.07-.644 4.55c-.047.345-.033.574.042.686a.371.371 0 0 0 .294.154c.214 0 .42-.107.616-.322.205-.224.401-.537.588-.938l.434.238c-.224.513-.481.919-.77 1.218-.28.289-.654.434-1.12.434Zm6.509-6.72c.495 0 .929.117 1.302.35.373.233.663.56.868.98.205.42.308.91.308 1.47 0 .513-.089 1.008-.266 1.484a4.013 4.013 0 0 1-.714 1.246 3.516 3.516 0 0 1-1.092.868c-.42.215-.877.322-1.372.322-.495 0-.929-.117-1.302-.35a2.334 2.334 0 0 1-.868-.98c-.205-.429-.308-.919-.308-1.47 0-.513.084-1.003.252-1.47.177-.476.42-.896.728-1.26a3.516 3.516 0 0 1 1.092-.868c.42-.215.877-.322 1.372-.322Zm-.84 6.23c.327 0 .621-.093.882-.28a2.43 2.43 0 0 0 .672-.756c.187-.327.327-.7.42-1.12.103-.42.154-.863.154-1.33 0-.513-.061-.933-.182-1.26-.121-.336-.289-.583-.504-.742a1.15 1.15 0 0 0-.728-.252c-.327 0-.621.093-.882.28a2.38 2.38 0 0 0-.672.77 4.078 4.078 0 0 0-.434 1.106c-.093.42-.14.863-.14 1.33 0 .513.061.938.182 1.274.121.327.289.574.504.742.215.159.457.238.728.238Zm4.979.35.826-5.88-.07-.07h-1.036l.07-.49c.364 0 .7-.005 1.008-.014.317-.009.662-.028 1.036-.056l.07.07-.21 1.456h.07c.13-.252.303-.499.518-.742.214-.252.462-.457.742-.616a1.86 1.86 0 0 1 .91-.238c.27 0 .48.079.63.238.158.159.238.35.238.574 0 .252-.075.476-.224.672a.733.733 0 0 1-.616.294.662.662 0 0 1-.49-.182c-.112-.121-.168-.285-.168-.49 0-.131.037-.271.112-.42-.43.177-.836.555-1.218 1.134-.374.569-.626 1.269-.756 2.1l-.378 2.66h-1.064Zm7.07.14c-.448 0-.85-.065-1.204-.196a2.177 2.177 0 0 1-.854-.574 1.223 1.223 0 0 1-.308-.812c0-.252.07-.467.21-.644a.651.651 0 0 1 .546-.28c.177 0 .312.056.406.168a.62.62 0 0 1 .154.434.932.932 0 0 1-.224.588.664.664 0 0 1-.546.266c-.178 0-.294-.056-.35-.168a.802.802 0 0 1-.084-.364h.378c0 .289.177.546.532.77.364.215.802.322 1.316.322.382 0 .686-.056.91-.168.233-.121.396-.266.49-.434.102-.177.154-.35.154-.518a.818.818 0 0 0-.238-.602 2.07 2.07 0 0 0-.616-.434 10.068 10.068 0 0 0-.784-.378 9.36 9.36 0 0 1-.798-.42 2.201 2.201 0 0 1-.602-.574c-.159-.224-.238-.499-.238-.826 0-.327.088-.63.266-.91.186-.289.457-.523.812-.7.354-.177.788-.266 1.302-.266.662 0 1.18.145 1.554.434.382.28.574.625.574 1.036 0 .252-.07.471-.21.658a.664.664 0 0 1-.546.266.54.54 0 0 1-.42-.168.652.652 0 0 1-.14-.434c0-.215.07-.411.21-.588a.677.677 0 0 1 .56-.266c.186 0 .303.056.35.168a.802.802 0 0 1 .084.364h-.378c0-.252-.136-.476-.406-.672-.271-.205-.668-.308-1.19-.308-.402 0-.714.056-.938.168-.215.112-.364.247-.448.406a.861.861 0 0 0-.126.42c0 .205.079.378.238.518.158.14.359.271.602.392.252.112.518.233.798.364.28.131.541.28.784.448.252.168.457.378.616.63.158.243.238.546.238.91 0 .401-.103.751-.308 1.05-.206.289-.49.518-.854.686-.364.159-.789.238-1.274.238Zm7.138-4.858h6.44l-.07.49h-6.44l.07-.49Zm3.892-2.982-.91 6.44h-.49l.91-6.44h.49Zm8.711.49c0 .345.112.63.336.854.233.215.527.401.882.56.364.149.747.303 1.148.462.401.149.779.331 1.134.546.364.215.658.49.882.826.233.336.35.77.35 1.302 0 .588-.145 1.092-.434 1.512-.289.42-.681.742-1.176.966-.485.215-1.036.322-1.652.322-.485 0-.952-.065-1.4-.196a3.883 3.883 0 0 1-1.12-.518l-.378.56h-.49a8.73 8.73 0 0 0 .028-.994c0-.355-.009-.7-.028-1.036a23.176 23.176 0 0 0-.07-.952l.476-.14c.196.691.462 1.237.798 1.638.336.392.695.672 1.078.84.383.159.733.238 1.05.238.401 0 .775-.065 1.12-.196a1.91 1.91 0 0 0 .826-.616c.215-.271.322-.616.322-1.036 0-.383-.117-.695-.35-.938a2.777 2.777 0 0 0-.868-.616 13.436 13.436 0 0 0-1.148-.504 9.966 9.966 0 0 1-1.134-.56 3.11 3.11 0 0 1-.882-.784c-.224-.317-.336-.719-.336-1.204 0-.551.14-1.022.42-1.414a2.69 2.69 0 0 1 1.162-.91 4.14 4.14 0 0 1 1.666-.322c.411 0 .779.061 1.106.182.336.112.658.289.966.532l.378-.574h.49c-.028.476-.037.938-.028 1.386.009.448.033.891.07 1.33l-.49.14c-.103-.513-.252-.929-.448-1.246-.196-.327-.415-.574-.658-.742a2.191 2.191 0 0 0-.714-.35 2.658 2.658 0 0 0-.686-.098c-.691 0-1.232.177-1.624.532-.383.345-.574.751-.574 1.218Zm6.362 4.55c0-.579.084-1.106.252-1.582a3.94 3.94 0 0 1 .686-1.232 3.182 3.182 0 0 1 1.008-.812 2.472 2.472 0 0 1 1.162-.294c.252 0 .5.047.742.14.252.084.476.229.672.434.206.196.36.467.462.812l.658-1.246h.49l-.7 5.082c-.037.289-.028.509.028.658.056.14.15.21.28.21.159 0 .313-.089.462-.266.159-.187.313-.425.462-.714l.434.238c-.233.504-.485.859-.756 1.064a1.392 1.392 0 0 1-.882.308c-.317 0-.578-.093-.784-.28-.196-.196-.298-.495-.308-.896a2.488 2.488 0 0 1-.896.868 2.41 2.41 0 0 1-1.204.308c-.448 0-.844-.107-1.19-.322a2.302 2.302 0 0 1-.798-.952c-.186-.42-.28-.929-.28-1.526Zm1.19.07c0 .7.117 1.227.35 1.582.234.345.565.518.994.518.448 0 .836-.159 1.162-.476.327-.327.579-.742.756-1.246.187-.513.28-1.055.28-1.624 0-.719-.14-1.251-.42-1.596-.28-.345-.634-.518-1.064-.518-.448 0-.826.163-1.134.49-.298.317-.527.733-.686 1.246a5.4 5.4 0 0 0-.238 1.624Zm9.019 2.73a3.46 3.46 0 0 1-1.204-.196 2.184 2.184 0 0 1-.854-.574 1.228 1.228 0 0 1-.308-.812c0-.252.07-.467.21-.644a.651.651 0 0 1 .546-.28c.177 0 .313.056.406.168a.616.616 0 0 1 .154.434.932.932 0 0 1-.224.588.664.664 0 0 1-.546.266c-.177 0-.294-.056-.35-.168a.802.802 0 0 1-.084-.364h.378c0 .289.177.546.532.77.364.215.803.322 1.316.322.383 0 .686-.056.91-.168.233-.121.397-.266.49-.434.103-.177.154-.35.154-.518a.815.815 0 0 0-.238-.602 2.07 2.07 0 0 0-.616-.434 10.068 10.068 0 0 0-.784-.378 9.36 9.36 0 0 1-.798-.42 2.215 2.215 0 0 1-.602-.574c-.159-.224-.238-.499-.238-.826 0-.327.089-.63.266-.91.187-.289.457-.523.812-.7.355-.177.789-.266 1.302-.266.663 0 1.181.145 1.554.434.383.28.574.625.574 1.036 0 .252-.07.471-.21.658a.664.664 0 0 1-.546.266.542.542 0 0 1-.42-.168.658.658 0 0 1-.14-.434c0-.215.07-.411.21-.588a.679.679 0 0 1 .56-.266c.187 0 .303.056.35.168a.802.802 0 0 1 .084.364h-.378c0-.252-.135-.476-.406-.672-.271-.205-.667-.308-1.19-.308-.401 0-.714.056-.938.168-.215.112-.364.247-.448.406a.861.861 0 0 0-.126.42c0 .205.079.378.238.518.159.14.359.271.602.392.252.112.518.233.798.364.28.131.541.28.784.448.252.168.457.378.616.63.159.243.238.546.238.91 0 .401-.103.751-.308 1.05-.205.289-.49.518-.854.686-.364.159-.789.238-1.274.238Zm10.688-1.61.434.238c-.234.504-.486.859-.756 1.064a1.396 1.396 0 0 1-.882.308c-.383 0-.682-.131-.896-.392-.206-.271-.262-.705-.168-1.302l.448-2.912c.037-.205.046-.42.028-.644a1.038 1.038 0 0 0-.224-.588c-.122-.168-.336-.252-.644-.252-.168 0-.36.033-.574.098a1.7 1.7 0 0 0-.644.392c-.206.187-.392.457-.56.812-.168.355-.294.821-.378 1.4l-.462 3.248h-1.064l1.372-9.66-.07-.07h-1.036l.07-.49c.364 0 .709-.005 1.036-.014.336-.009.69-.028 1.064-.056l.07.07-.672 4.746c.186-.299.448-.555.784-.77.345-.224.774-.336 1.288-.336.625 0 1.087.182 1.386.546.308.364.415.84.322 1.428l-.504 3.248c-.038.289-.028.509.028.658.056.14.149.21.28.21.158 0 .312-.089.462-.266.158-.187.312-.425.462-.714Zm1.388-1.19c0-.579.084-1.106.252-1.582a3.94 3.94 0 0 1 .686-1.232 3.182 3.182 0 0 1 1.008-.812 2.472 2.472 0 0 1 1.162-.294c.252 0 .5.047.742.14.252.084.476.229.672.434.206.196.36.467.462.812l.658-1.246h.49l-.7 5.082c-.037.289-.028.509.028.658.056.14.15.21.28.21.159 0 .313-.089.462-.266.159-.187.313-.425.462-.714l.434.238c-.233.504-.485.859-.756 1.064a1.392 1.392 0 0 1-.882.308c-.317 0-.578-.093-.784-.28-.196-.196-.298-.495-.308-.896a2.488 2.488 0 0 1-.896.868 2.41 2.41 0 0 1-1.204.308c-.448 0-.844-.107-1.19-.322a2.302 2.302 0 0 1-.798-.952c-.186-.42-.28-.929-.28-1.526Zm1.19.07c0 .7.117 1.227.35 1.582.234.345.565.518.994.518.448 0 .836-.159 1.162-.476.327-.327.579-.742.756-1.246.187-.513.28-1.055.28-1.624 0-.719-.14-1.251-.42-1.596-.28-.345-.634-.518-1.064-.518-.448 0-.826.163-1.134.49-.298.317-.527.733-.686 1.246a5.4 5.4 0 0 0-.238 1.624Z" fill="#3E3E3E"/><circle cx="117" cy="117" r="116.5" fill="#2C2C2C" stroke="#2C2C2C"/><circle cx="117" cy="190" r="16" fill="#44CB9B"/><path d="M65.766 136.262a3.3 3.3 0 0 1-1.26-.252 2.476 2.476 0 0 1-1.022-.812c-.261-.373-.392-.854-.392-1.442 0-.523.107-.985.322-1.386.224-.411.518-.756.882-1.036s.765-.49 1.204-.63a4.237 4.237 0 0 1 1.344-.224c.345 0 .686.056 1.022.168.336.103.64.289.91.56.27.261.485.625.644 1.092.168.467.252 1.064.252 1.792 0 .793-.107 1.554-.322 2.282a6.521 6.521 0 0 1-.896 1.946 4.562 4.562 0 0 1-1.414 1.33 3.45 3.45 0 0 1-1.82.49c-.448 0-.859-.075-1.232-.224a2.273 2.273 0 0 1-.882-.616 1.428 1.428 0 0 1-.322-.91c0-.327.089-.583.266-.77a.87.87 0 0 1 .63-.28c.205 0 .369.065.49.196.13.131.196.294.196.49a.853.853 0 0 1-.154.462c-.103.149-.294.275-.574.378.13.252.355.434.672.546.317.112.625.168.924.168.607 0 1.143-.21 1.61-.63.476-.429.85-1.064 1.12-1.904.27-.84.406-1.881.406-3.122 0-.532-.042-1.013-.126-1.442-.075-.439-.238-.789-.49-1.05-.243-.261-.616-.392-1.12-.392-.43 0-.812.107-1.148.322a2.168 2.168 0 0 0-.77.924c-.187.392-.28.873-.28 1.442 0 .709.14 1.218.42 1.526.29.299.653.448 1.092.448.457 0 .915-.145 1.372-.434.467-.289.915-.719 1.344-1.288l-.112.77a4.394 4.394 0 0 1-1.162 1.064c-.457.299-.999.448-1.624.448Zm5.604-2.996c0 .476.107.868.322 1.176.224.299.508.546.854.742.345.196.71.373 1.092.532.392.149.76.308 1.106.476.345.159.625.359.84.602.224.233.336.537.336.91 0 .383-.122.719-.364 1.008-.243.28-.556.495-.938.644a3.29 3.29 0 0 1-1.204.224c-.234 0-.48-.028-.742-.084a2.635 2.635 0 0 1-.742-.28 1.654 1.654 0 0 1-.574-.532c-.14-.233-.21-.518-.21-.854 0-.336.074-.639.224-.91.15-.28.35-.523.602-.728.252-.215.532-.401.84-.56.317-.159.634-.294.952-.406l-.658-.21c-.41.14-.817.345-1.218.616a3.605 3.605 0 0 0-.994.994c-.262.383-.392.835-.392 1.358 0 .411.084.756.252 1.036.177.271.401.49.672.658.28.168.588.285.924.35.336.075.662.112.98.112.317 0 .644-.033.98-.098a4.53 4.53 0 0 0 .994-.308c.326-.14.616-.322.868-.546.261-.224.466-.495.616-.812.158-.317.238-.686.238-1.106 0-.513-.112-.933-.336-1.26a2.413 2.413 0 0 0-.84-.784 6.527 6.527 0 0 0-1.092-.518 19.767 19.767 0 0 1-1.092-.462 2.919 2.919 0 0 1-.854-.574c-.215-.224-.322-.523-.322-.896 0-.345.098-.649.294-.91.196-.261.462-.462.798-.602a2.698 2.698 0 0 1 1.106-.224c.317 0 .62.051.91.154.298.103.546.266.742.49.196.224.294.527.294.91 0 .42-.164.817-.49 1.19-.318.364-.878.728-1.68 1.092l.77.14c.718-.383 1.236-.775 1.554-1.176.326-.411.49-.863.49-1.358 0-.476-.122-.859-.364-1.148a1.935 1.935 0 0 0-.924-.644 3.558 3.558 0 0 0-1.232-.21c-.448 0-.878.07-1.288.21-.41.131-.775.317-1.092.56a2.824 2.824 0 0 0-.742.882 2.392 2.392 0 0 0-.266 1.134Zm13.912-1.526h-4.844l-.644 2.954c.205-.159.49-.308.854-.448.373-.14.817-.21 1.33-.21.915 0 1.624.243 2.128.728.513.485.77 1.115.77 1.89 0 .653-.173 1.246-.518 1.778a3.67 3.67 0 0 1-1.414 1.246c-.597.308-1.279.462-2.044.462-.607 0-1.11-.093-1.512-.28-.401-.196-.7-.448-.896-.756a1.773 1.773 0 0 1-.294-.966c0-.355.093-.635.28-.84.187-.205.397-.308.63-.308.205 0 .369.065.49.196a.674.674 0 0 1 .182.476.801.801 0 0 1-.266.602.914.914 0 0 1-.546.266c.13.317.36.574.686.77.336.187.751.28 1.246.28.588 0 1.078-.126 1.47-.378a2.35 2.35 0 0 0 .882-1.022c.196-.429.294-.901.294-1.414 0-.439-.07-.817-.21-1.134a1.652 1.652 0 0 0-.616-.756c-.27-.187-.611-.28-1.022-.28-.43 0-.859.103-1.288.308-.43.205-.78.485-1.05.84l-.406-.112 1.12-5.012h5.362l-.154 1.12Zm5.45-1.26a2.33 2.33 0 0 1 1.442.476c.43.317.765.775 1.008 1.372.252.588.378 1.288.378 2.1 0 .859-.117 1.638-.35 2.338-.233.7-.55 1.302-.952 1.806a4.26 4.26 0 0 1-1.344 1.162 3.163 3.163 0 0 1-1.54.406 2.39 2.39 0 0 1-1.456-.476c-.42-.327-.756-.784-1.008-1.372-.243-.588-.364-1.288-.364-2.1 0-.859.117-1.638.35-2.338.233-.7.55-1.302.952-1.806.401-.504.85-.891 1.344-1.162a3.164 3.164 0 0 1 1.54-.406Zm-1.162 9.1a1.7 1.7 0 0 0 1.008-.308c.299-.205.55-.481.756-.826.215-.355.387-.761.518-1.218.13-.457.229-.943.294-1.456.065-.523.098-1.041.098-1.554 0-1.027-.15-1.811-.448-2.352-.299-.551-.719-.826-1.26-.826-.383 0-.723.103-1.022.308-.29.205-.541.485-.756.84a5.08 5.08 0 0 0-.504 1.204c-.13.457-.229.943-.294 1.456a12.295 12.295 0 0 0-.098 1.554c0 1.027.15 1.815.448 2.366.299.541.719.812 1.26.812Zm15.672-8.96h2.87l-.07.49h-.98l-.07.07-1.246 8.82h-1.05l-4.312-7.7h-.07l-.994 7.14.07.07h1.106l-.07.49h-3.01l.07-.49h1.134l.07-.07 1.162-8.26-.07-.07h-1.12l.07-.49h2.24l4.312 7.7h.07l1.008-7.14-.07-.07h-1.12l.07-.49Zm2.742 9.38.07-.49h1.134l.07-.07 1.148-8.26-.07-.07h-1.106l.07-.49h6.524l.196 2.24-.49.14c-.056-.495-.172-.877-.35-1.148a1.423 1.423 0 0 0-.77-.574c-.336-.112-.774-.168-1.316-.168h-1.358l-.07.07-.56 3.99h1.582c.402 0 .719-.103.952-.308.234-.205.411-.616.532-1.232h.49l-.504 3.57h-.49c.047-.616-.018-1.027-.196-1.232-.168-.205-.452-.308-.854-.308h-1.582l-.518 3.78.07.07h1.666l-.07.49h-4.2Zm16.563-9.38.196 2.24-.49.14c-.056-.495-.177-.877-.364-1.148-.186-.271-.466-.462-.84-.574-.364-.112-.863-.168-1.498-.168l-1.162 8.33.07.07h1.106l-.07.49h-3.64l.07-.49h1.134l.07-.07 1.162-8.33c-.625 0-1.143.056-1.554.168a2.157 2.157 0 0 0-.994.574c-.252.271-.48.653-.686 1.148l-.434-.14.812-2.24h7.112Zm7.194 2.8c.494 0 .928.117 1.302.35.373.233.662.56.868.98.205.42.308.91.308 1.47 0 .513-.089 1.008-.266 1.484a4.013 4.013 0 0 1-.714 1.246 3.516 3.516 0 0 1-1.092.868c-.42.215-.878.322-1.372.322-.495 0-.929-.117-1.302-.35a2.327 2.327 0 0 1-.868-.98c-.206-.429-.308-.919-.308-1.47 0-.513.084-1.003.252-1.47.177-.476.42-.896.728-1.26a3.516 3.516 0 0 1 1.092-.868c.42-.215.877-.322 1.372-.322Zm-.84 6.23c.326 0 .62-.093.882-.28a2.43 2.43 0 0 0 .672-.756c.186-.327.326-.7.42-1.12.102-.42.154-.863.154-1.33 0-.513-.061-.933-.182-1.26-.122-.336-.29-.583-.504-.742a1.152 1.152 0 0 0-.728-.252c-.327 0-.621.093-.882.28a2.356 2.356 0 0 0-.672.77 4.045 4.045 0 0 0-.434 1.106c-.094.42-.14.863-.14 1.33 0 .513.06.938.182 1.274.121.327.289.574.504.742.214.159.457.238.728.238Zm13.798-6.16.07.07a16.884 16.884 0 0 1-.21 1.694 12.731 12.731 0 0 1-.406 1.764 7.288 7.288 0 0 1-.658 1.582c-.261.467-.583.84-.966 1.12-.373.28-.812.42-1.316.42-.429 0-.779-.117-1.05-.35-.261-.243-.42-.565-.476-.966a2.441 2.441 0 0 1-1.288 1.176c-.252.093-.513.14-.784.14-.569 0-.994-.182-1.274-.546-.271-.364-.364-.845-.28-1.442l.574-4.032-.07-.07h-1.036l.07-.49c.364 0 .709-.005 1.036-.014.336-.009.691-.028 1.064-.056l.07.07-.658 4.634c-.047.345-.014.653.098.924.121.261.355.392.7.392.28 0 .555-.103.826-.308.271-.215.509-.518.714-.91.205-.392.345-.859.42-1.4l.406-2.772-.07-.07h-1.036l.07-.49c.364 0 .709-.005 1.036-.014.336-.009.691-.028 1.064-.056l.07.07-.658 4.634c-.047.345-.019.653.084.924.112.261.341.392.686.392.383 0 .733-.182 1.05-.546.317-.373.569-.863.756-1.47a6.485 6.485 0 0 0 .294-2.002c0-.327-.023-.597-.07-.812a11.694 11.694 0 0 0-.126-.63h-.952l.07-.49c.364 0 .719-.005 1.064-.014.355-.009.719-.028 1.092-.056Zm7.981 5.04.434.238c-.234.504-.486.859-.756 1.064a1.396 1.396 0 0 1-.882.308c-.383 0-.682-.131-.896-.392-.206-.271-.262-.705-.168-1.302l.448-2.912c.037-.205.046-.42.028-.644a1.038 1.038 0 0 0-.224-.588c-.122-.168-.336-.252-.644-.252-.168 0-.36.033-.574.098-.215.056-.43.173-.644.35-.206.168-.392.42-.56.756-.159.327-.276.761-.35 1.302l-.476 3.444h-1.064l.826-5.88-.07-.07h-1.036l.07-.49c.364 0 .7-.005 1.008-.014.317-.009.662-.028 1.036-.056l.07.07-.154.994h.07c.177-.299.438-.56.784-.784.345-.233.774-.35 1.288-.35.625 0 1.087.182 1.386.546.308.364.415.84.322 1.428l-.504 3.248c-.038.289-.028.509.028.658.056.14.149.21.28.21.158 0 .312-.089.462-.266.158-.187.312-.425.462-.714Zm3.894 1.61c-.513 0-.956-.107-1.33-.322a2.25 2.25 0 0 1-.868-.966c-.205-.42-.308-.924-.308-1.512 0-.756.159-1.428.476-2.016a3.67 3.67 0 0 1 1.316-1.4 3.578 3.578 0 0 1 1.876-.504c.308 0 .602.042.882.126.29.075.523.205.7.392.178.177.266.42.266.728 0 .327-.121.625-.364.896-.242.271-.578.509-1.008.714-.42.205-.9.373-1.442.504-.541.121-1.106.205-1.694.252v-.448a8.768 8.768 0 0 0 1.302-.224c.411-.103.77-.229 1.078-.378.308-.159.546-.341.714-.546.178-.215.266-.448.266-.7 0-.252-.074-.453-.224-.602-.14-.149-.35-.224-.63-.224-.345 0-.662.089-.952.266a2.49 2.49 0 0 0-.756.742 3.635 3.635 0 0 0-.49 1.106 5.1 5.1 0 0 0-.168 1.344c0 .523.066.947.196 1.274.14.327.327.565.56.714.243.149.518.224.826.224.402 0 .766-.131 1.092-.392a3.21 3.21 0 0 0 .798-.882l.434.238c-.14.252-.331.499-.574.742a3.136 3.136 0 0 1-.84.616 2.557 2.557 0 0 1-1.134.238Zm4.229-.14.826-5.88-.07-.07h-1.036l.07-.49c.364 0 .7-.005 1.008-.014.317-.009.663-.028 1.036-.056l.07.07-.21 1.456h.07c.131-.252.303-.499.518-.742.215-.252.462-.457.742-.616.289-.159.593-.238.91-.238.271 0 .481.079.63.238.159.159.238.35.238.574 0 .252-.075.476-.224.672a.732.732 0 0 1-.616.294.663.663 0 0 1-.49-.182c-.112-.121-.168-.285-.168-.49 0-.131.037-.271.112-.42-.429.177-.835.555-1.218 1.134-.373.569-.625 1.269-.756 2.1l-.378 2.66h-1.064Zm7.07.14a3.46 3.46 0 0 1-1.204-.196 2.184 2.184 0 0 1-.854-.574 1.228 1.228 0 0 1-.308-.812c0-.252.07-.467.21-.644a.651.651 0 0 1 .546-.28c.177 0 .313.056.406.168a.616.616 0 0 1 .154.434.932.932 0 0 1-.224.588.664.664 0 0 1-.546.266c-.177 0-.294-.056-.35-.168a.802.802 0 0 1-.084-.364h.378c0 .289.177.546.532.77.364.215.803.322 1.316.322.383 0 .686-.056.91-.168.233-.121.397-.266.49-.434.103-.177.154-.35.154-.518a.815.815 0 0 0-.238-.602 2.07 2.07 0 0 0-.616-.434 10.068 10.068 0 0 0-.784-.378 9.36 9.36 0 0 1-.798-.42 2.215 2.215 0 0 1-.602-.574c-.159-.224-.238-.499-.238-.826 0-.327.089-.63.266-.91.187-.289.457-.523.812-.7.355-.177.789-.266 1.302-.266.663 0 1.181.145 1.554.434.383.28.574.625.574 1.036 0 .252-.07.471-.21.658a.664.664 0 0 1-.546.266.542.542 0 0 1-.42-.168.658.658 0 0 1-.14-.434c0-.215.07-.411.21-.588a.679.679 0 0 1 .56-.266c.187 0 .303.056.35.168a.802.802 0 0 1 .084.364h-.378c0-.252-.135-.476-.406-.672-.271-.205-.667-.308-1.19-.308-.401 0-.714.056-.938.168-.215.112-.364.247-.448.406a.861.861 0 0 0-.126.42c0 .205.079.378.238.518.159.14.359.271.602.392.252.112.518.233.798.364.28.131.541.28.784.448.252.168.457.378.616.63.159.243.238.546.238.91 0 .401-.103.751-.308 1.05-.205.289-.49.518-.854.686-.364.159-.789.238-1.274.238ZM56.304 116c2.64 0 10.728-.984 6.744-10.632-5.52-13.44 7.92-11.52 5.976-4.872h.144l1.536-5.352h-3.192c-.984 0-11.4-.6-6.576 10.344 5.328 12.096-10.464 13.488-8.04 5.16h-.168L51.168 116h5.136Zm18.063-13.344c-3.288 0-6.576 3.024-7.344 6.768-.768 3.744 1.296 6.768 4.584 6.768 3.288 0 6.576-3.024 7.344-6.768.768-3.744-1.272-6.768-4.584-6.768Zm2.592 6.744c-.744 3.624-3.144 6.696-5.328 6.696-2.208 0-3.36-3.072-2.616-6.696.744-3.624 3.144-6.648 5.328-6.648s3.36 3.024 2.616 6.648Zm12.452 3.696 2.928-10.416h-1.824l-2.832 10.056h-3.552c1.488 4.224-3.528 4.272-2.16-.12l2.808-9.936h-4.608l.048.096a1.946 1.946 0 0 1 1.632.696c.408.48.576 1.128.408 1.752l-1.968 7.008c-.984 4.224 4.224 5.664 5.928.6h1.464L86.771 116h5.28l.048-.072c-.96 0-3.384-.288-2.688-2.832Zm13.056-17.856.024-.096h-5.184l-.025.12c.96 0 3.289.288 2.569 2.832l-4.2 14.928c-.504 1.776-2.16 2.976-3.984 2.88l-.025.096h8.305l-.097-.096c-.983 0-3.12-.336-2.4-2.88l5.017-17.784Zm21.739 7.44h-2.352l-.456 1.56a5.553 5.553 0 0 0-4.056-1.584c-3.288 0-6.24 2.4-6.6 5.352-.288 2.64 1.632 4.992 4.248 5.28h-4.152l-1.68 6.048c-.984 3.696 4.416 4.608 5.304 1.032l.024-.072c1.992 2.328 7.2 2.352 7.896-1.8.744-4.512-7.368-6.48-8.544-1.416l-1.368 4.488c-.504 1.68-2.568.984-2.04-.696l2.208-7.488h3.72l-.024-.024c3.192-.12 6-2.472 6.336-5.352a4.406 4.406 0 0 0-1.008-3.456l2.544-1.872Zm-8.784 14.736c1.368-4.704 6.48-3.84 5.184 1.032a3.608 3.608 0 0 1-2.52 2.736c-1.272.36-2.664 0-3.576-.96l.912-2.808Zm5.256-9.408c-.336 2.832-2.4 5.256-4.584 5.28h-.072c-2.16-.024-3.624-2.448-3.288-5.28.336-2.88 2.4-5.256 4.608-5.256 2.184 0 3.672 2.376 3.336 5.256Zm18.818-2.136h-1.464l.912-3.192h-1.824l-1.656 5.904c-3.168 11.808-10.752 6.744-8.832-.192a8.58 8.58 0 0 1 .456-1.32h6.696l1.272-4.392h-2.736c-.72 0-6.168 0-7.776 5.664-1.944 6.864 6.552 12.12 10.248 2.64l-1.416 5.04h5.592l-.096-.096c-.96 0-3.48-.672-2.736-3.312l1.872-6.648h3.576c-1.488-4.248 3.48-4.152 2.112.216l-2.76 9.84h1.8l2.688-9.552c.984-4.248-4.224-5.664-5.928-.6Zm-5.832 1.104h-6.528c2.328-5.424 8.088-5.616 6.528 0Zm30.454-4.296c-.36 0-7.464-.384-4.392 6.6 3.408 7.728-6.384 8.472-4.896 3.312h-.072c-2.472 5.808-7.92 2.736-6.024-4.2.144-.456.288-.888.456-1.32h6.696l1.272-4.392h-2.736c-.696 0-6.168 0-7.752 5.664-2.016 7.08 4.8 10.536 7.776 5.04l-.768 2.64h3.288c1.68 0 7.248-.648 4.704-6.816-3.528-8.568 4.56-7.248 3.408-3.096h.144l1.008-3.408-2.112-.024Zm-8.352 4.296h-6.528c2.352-5.424 8.112-5.616 6.528 0Zm15.045-5.088a1.29 1.29 0 0 0 1.296-1.296c0-.696-.576-1.296-1.296-1.296-.72 0-1.296.6-1.296 1.296 0 .72.576 1.296 1.296 1.296Zm7.824.792c-.384 0-7.464-.384-4.392 6.6 3.408 7.728-6.84 8.448-5.352 3.288l2.784-9.888h-5.28l-.048.072c.984 0 3.408.288 2.688 2.832L166.131 116h5.328c1.704 0 7.272-.624 4.728-6.792-3.528-8.568 4.56-7.272 3.408-3.096h.144l1.008-3.432h-2.112Z" fill="#fff"/><path stroke="#44CB9B" stroke-width="2" d="M132 191h340"/></svg>